<svg width="512" height="512" viewBox="0 0 512 512" fill="none" xmlns="http://www.w3.org/2000/svg">
<rect width="512" height="512" rx="64" fill="hsl(207 70% 53%)"/>
<g transform="translate(64, 64) scale(0.75)">
<path d="M439.409 301.818H413.5V271.364H334.318V225.455H42.7273V301.818H23.3182C17.6538 301.818 13.1818 306.29 13.1818 311.955V327.227C13.1818 332.891 17.6538 337.364 23.3182 337.364H42.7273V347.5C42.7273 358.545 51.6818 367.5 62.7273 367.5H98.6364C99.8037 383.333 113.88 395.455 130.909 395.455C147.938 395.455 162.015 383.333 163.182 367.5H301.591C302.758 383.333 316.835 395.455 333.864 395.455C350.893 395.455 364.97 383.333 366.136 367.5H397.318C408.364 367.5 417.318 358.545 417.318 347.5V301.818H439.409C445.074 301.818 449.545 297.346 449.545 291.682V281.545C449.545 275.88 445.074 271.364 439.409 271.364V215.318C439.409 209.654 434.938 205.182 429.273 205.182H339.318C333.654 205.182 329.182 209.654 329.182 215.318V225.455H62.7273V195.091C62.7273 189.426 58.2553 184.955 52.5909 184.955H23.3182C17.6538 184.955 13.1818 189.426 13.1818 195.091V281.545C13.1818 292.591 22.1364 301.545 33.1818 301.545H42.7273V301.818H42.7273V311.955C42.7273 317.619 38.2553 322.091 32.5909 322.091H23.3182C17.6538 322.091 13.1818 317.619 13.1818 311.955V301.818H13.1818V235.619C13.1818 232.787 15.419 230.545 18.25 230.545H329.182V240.682H339.318V271.364H413.5V281.545H418.5V301.818H428.636V327.227H413.5V347.5C413.5 356.242 406.061 363.545 397.318 363.545H366.699C362.298 376.124 349.333 385.318 333.864 385.318C318.394 385.318 305.429 376.124 301.028 363.545H163.744C159.343 376.124 146.378 385.318 130.909 385.318C115.439 385.318 102.474 376.124 98.0735 363.545H62.7273C53.9856 363.545 46.5455 356.242 46.5455 347.5V230.545H42.7273V225.455H334.318H339.318V215.318C339.318 212.486 337.081 210.273 334.318 210.273H62.7273V205.182C62.7273 192.217 73.0182 181.909 85.9091 181.909H118.636V161.636C118.636 150.591 127.591 141.636 138.636 141.636H183.636C194.682 141.636 203.636 150.591 203.636 161.636V181.909H329.273C342.164 181.909 352.455 192.217 352.455 205.182V271.364H362.591V215.318C362.591 201.273 373.136 190.136 386.682 186.442L388.955 185.864L389.091 185.825V185.788L391.227 155.455L398.045 153.864L402.727 141.636H444.409C447.348 141.636 449.545 143.833 449.545 146.727V215.318C449.545 220.983 445.074 225.455 439.409 225.455V271.364H439.409ZM333.864 357.273C325.101 357.273 317.955 350.126 317.955 341.364C317.955 332.601 325.101 325.455 333.864 325.455C342.627 325.455 349.773 332.601 349.773 341.364C349.773 350.126 342.627 357.273 333.864 357.273ZM130.909 357.273C122.146 357.273 115 350.126 115 341.364C115 332.601 122.146 325.455 130.909 325.455C139.672 325.455 146.818 332.601 146.818 341.364C146.818 350.126 139.672 357.273 130.909 357.273Z" fill="white"/>
</g>
</svg>
