<?xml version="1.0" standalone="no"?>
<!DOCTYPE svg PUBLIC "-//W3C//DTD SVG 20010904//EN"
 "http://www.w3.org/TR/2001/REC-SVG-20010904/DTD/svg10.dtd">
<svg version="1.0" xmlns="http://www.w3.org/2000/svg"
 width="1563.000000pt" height="1563.000000pt" viewBox="0 0 1563.000000 1563.000000"
 preserveAspectRatio="xMidYMid meet">

<g transform="translate(0.000000,1563.000000) scale(0.100000,-0.100000)"
fill="#000000" stroke="none">
<path d="M5370 14614 c-38 -33 -60 -74 -60 -113 0 -26 104 -423 141 -539 15
-47 63 -99 104 -112 31 -10 40 -8 87 17 58 31 98 81 98 122 0 39 -146 558
-165 587 -43 67 -148 86 -205 38z"/>
<path d="M7670 14124 c-451 -31 -814 -126 -1180 -309 -299 -149 -521 -307
-753 -534 -577 -565 -886 -1301 -887 -2112 0 -473 84 -877 247 -1189 78 -150
158 -266 349 -505 295 -371 394 -547 474 -850 64 -239 87 -418 99 -752 l7
-222 37 -75 c43 -85 99 -141 186 -183 l56 -28 1510 0 1510 0 60 29 c77 38 154
115 190 191 28 58 29 66 36 280 4 121 10 232 14 246 6 23 2 28 -32 42 -63 25
-156 100 -195 158 -59 84 -80 157 -86 285 l-4 111 -45 16 -45 17 -63 -64
c-132 -130 -301 -182 -460 -141 -131 34 -151 49 -458 354 -263 261 -291 293
-325 360 -34 68 -37 83 -40 177 -6 152 27 237 138 360 65 71 74 90 60 124 -15
35 -24 38 -150 42 -85 3 -104 8 -170 39 -127 61 -207 148 -261 284 -23 59 -24
67 -27 443 -4 423 -1 452 54 560 82 165 250 262 451 262 81 0 83 0 98 30 24
46 19 62 -40 120 -110 108 -155 211 -155 354 0 91 19 168 57 236 32 57 531
561 599 606 197 128 454 102 637 -66 l67 -62 38 19 37 20 6 109 c6 120 27 187
80 268 67 101 190 178 319 200 l72 12 -39 35 c-78 71 -251 195 -378 272 -365
222 -748 354 -1187 411 -118 16 -406 27 -508 20z"/>
<path d="M4644 13931 c-66 -40 -96 -109 -75 -173 8 -23 79 -101 224 -245 190
-189 216 -211 252 -216 128 -19 214 75 170 188 -13 36 -59 85 -225 245 -115
110 -220 204 -235 210 -40 15 -76 12 -111 -9z"/>
<path d="M3960 13192 c-27 -12 -55 -36 -73 -62 -37 -53 -10 -166 45 -190 52
-23 546 -160 576 -160 104 0 173 92 143 190 -21 71 -42 81 -360 159 -300 73
-306 74 -331 63z"/>
<path d="M9727 13090 c-46 -14 -93 -56 -116 -103 -19 -39 -21 -61 -21 -223 l0
-180 -52 -13 c-77 -20 -191 -66 -287 -117 -83 -44 -85 -44 -105 -26 -12 10
-76 68 -142 129 -143 131 -171 144 -256 119 -51 -14 -74 -33 -302 -252 -156
-150 -255 -252 -268 -278 -31 -60 -29 -141 5 -198 14 -25 76 -93 137 -151 60
-58 110 -110 110 -115 0 -5 -25 -59 -55 -118 -31 -60 -69 -153 -87 -206 l-31
-98 -166 0 c-91 0 -184 -5 -206 -11 -50 -14 -120 -82 -131 -129 -5 -19 -7
-200 -4 -401 l5 -366 29 -41 c50 -72 84 -82 293 -82 l181 0 27 -82 c14 -46 55
-142 90 -215 l63 -132 -118 -107 c-155 -140 -181 -189 -159 -297 11 -50 19
-60 253 -296 258 -260 298 -291 384 -291 68 0 103 21 236 144 70 64 131 116
136 116 6 0 21 -6 33 -14 37 -24 186 -87 287 -122 l95 -32 5 -179 c6 -197 11
-215 74 -271 57 -50 85 -53 459 -50 337 3 343 3 390 27 30 15 58 39 75 64 26
40 27 44 30 223 3 160 5 183 20 189 9 4 42 16 72 26 30 11 119 47 198 81 l143
61 117 -116 c121 -120 163 -147 229 -147 93 0 104 8 361 263 152 152 250 257
262 282 23 47 26 134 7 178 -7 15 -66 81 -131 147 l-120 118 36 79 c40 87 89
222 110 298 l14 50 189 5 c216 6 236 12 290 89 l30 43 3 371 3 372 -24 45
c-13 25 -43 59 -66 75 l-43 30 -192 3 -193 3 -13 57 c-15 71 -73 228 -112 306
l-30 59 110 111 c61 61 118 127 127 146 10 19 20 62 23 95 8 101 -11 126 -288
390 -133 127 -251 235 -263 242 -12 7 -40 15 -62 18 -72 11 -108 -11 -246
-150 l-127 -129 -130 62 c-71 34 -167 75 -213 91 l-84 28 -5 189 c-4 167 -7
193 -26 224 -23 41 -71 76 -123 90 -44 12 -704 12 -744 0z m-617 -2231 c0
-333 2 -384 16 -408 31 -52 45 -56 247 -59 l187 -4 0 -105 0 -105 -212 4
c-192 3 -217 5 -258 24 -69 33 -125 88 -159 156 l-31 61 0 409 0 408 105 0
105 0 0 -381z m1570 276 l0 -105 -390 0 -389 0 -36 -31 c-30 -26 -35 -37 -35
-74 0 -47 31 -90 72 -99 12 -3 140 -7 283 -8 299 -3 315 -7 403 -95 155 -155
107 -415 -93 -513 l-50 -25 -417 -3 -418 -3 0 105 0 106 374 0 c241 0 385 4
403 11 68 25 96 84 69 141 -30 62 -33 63 -341 68 -268 5 -282 6 -323 28 -66
35 -119 88 -149 150 -24 49 -28 69 -27 137 1 131 60 227 176 284 l61 31 414 0
413 0 0 -105z m270 -277 c0 -362 1 -385 20 -415 27 -45 67 -53 258 -53 l162 0
0 -106 0 -106 -207 4 c-204 3 -209 3 -265 31 -33 16 -76 49 -102 78 -75 84
-76 88 -76 546 l0 403 105 0 105 0 0 -382z"/>
<path d="M7178 7073 l-858 -3 0 -63 c1 -166 42 -278 135 -366 63 -60 139 -98
222 -111 78 -13 2199 -13 2277 0 173 28 314 164 346 331 6 29 10 87 10 130 l0
79 -602 0 c-332 0 -619 2 -638 3 -19 2 -421 2 -892 0z"/>
<path d="M6912 6123 c4 -108 7 -124 37 -191 40 -85 100 -146 187 -190 104 -52
123 -54 714 -50 l545 3 67 28 c93 40 186 126 224 209 25 56 29 76 32 186 l4
122 -907 0 -907 0 4 -117z"/>
<path d="M10107 5933 c-19 -156 -39 -375 -34 -379 3 -3 95 -15 204 -26 219
-23 292 -19 358 22 43 27 63 63 76 138 14 84 4 127 -41 172 -56 56 -125 77
-325 100 -246 28 -231 30 -238 -27z m293 -89 c45 -7 106 -39 114 -59 10 -26 7
-82 -5 -109 -17 -37 -57 -49 -153 -45 -46 2 -87 6 -90 9 -2 3 0 54 6 113 l11
107 41 -6 c23 -3 57 -7 76 -10z"/>
<path d="M5685 5939 c-297 -22 -290 -21 -289 -49 1 -14 8 -112 15 -218 l13
-194 91 6 c165 12 350 27 393 32 41 5 42 6 42 44 0 66 0 66 -103 59 -50 -4
-127 -9 -169 -12 l-78 -4 0 32 0 33 93 6 c50 4 109 9 130 12 36 6 37 7 37 45
l0 40 -135 -7 -135 -7 0 30 0 30 113 12 c62 6 132 11 155 11 l42 0 0 55 0 55
-52 -1 c-29 -1 -102 -6 -163 -10z"/>
<path d="M10780 5907 c0 -3 23 -65 51 -139 29 -73 68 -176 88 -228 l37 -95 84
-12 c47 -6 88 -9 91 -5 44 49 290 385 285 389 -3 4 -42 12 -87 18 l-80 12 -23
-31 c-13 -17 -53 -79 -91 -138 -37 -60 -71 -108 -75 -108 -3 0 -16 35 -29 78
-12 42 -34 114 -47 158 l-26 82 -51 6 c-29 4 -69 10 -89 13 -21 3 -38 3 -38 0z"/>
<path d="M4848 5862 c-80 -9 -149 -20 -153 -23 -6 -6 33 -420 41 -428 10 -11
386 39 449 60 128 43 170 113 146 245 -14 74 -34 103 -96 134 -64 32 -181 35
-387 12z m258 -117 c29 -18 48 -86 37 -123 -13 -39 -84 -72 -171 -79 l-70 -6
-7 102 c-4 55 -8 104 -9 108 -2 11 99 22 153 17 25 -2 55 -11 67 -19z"/>
<path d="M4162 5775 c-123 -18 -225 -35 -227 -37 -6 -6 50 -416 58 -424 5 -6
88 4 357 42 178 25 163 18 155 77 -3 29 -7 53 -8 54 -2 1 -77 -9 -167 -22 -90
-13 -166 -23 -167 -21 -2 1 -6 16 -9 33 l-6 30 75 11 c41 7 100 15 131 18 l56
7 0 38 c0 21 -4 40 -8 43 -5 3 -64 -3 -133 -13 -68 -10 -127 -17 -131 -14 -5
2 -8 17 -8 32 0 33 -10 30 188 57 133 19 127 15 116 87 -8 45 16 44 -272 2z"/>
<path d="M11486 5788 c-3 -13 -20 -106 -37 -208 -17 -102 -33 -188 -35 -192
-6 -9 16 -15 96 -28 92 -14 89 -15 96 39 10 75 8 74 115 56 230 -37 329 0 329
125 0 111 -72 149 -380 200 -69 11 -137 23 -152 26 -23 4 -28 1 -32 -18z m268
-132 c95 -19 116 -30 116 -62 0 -40 -33 -48 -134 -31 -48 9 -90 18 -93 21 -10
10 9 86 22 86 7 0 47 -7 89 -14z"/>
<path d="M3435 5658 c-93 -16 -171 -31 -172 -32 -3 -2 68 -421 73 -425 2 -2
43 3 91 10 97 16 91 9 77 96 l-6 41 59 11 c192 37 263 65 301 121 42 63 18
158 -49 192 -50 26 -173 22 -374 -14z m232 -84 c33 -9 40 -44 15 -65 -20 -16
-190 -54 -200 -45 -7 7 -21 80 -16 85 5 5 129 28 159 30 11 0 30 -2 42 -5z"/>
<path d="M12290 5563 c-12 -59 -32 -156 -45 -215 -26 -123 -35 -108 80 -132
38 -8 72 -13 76 -11 3 2 16 55 29 117 13 62 26 119 30 126 3 7 21 -35 40 -95
18 -59 41 -126 50 -149 17 -39 21 -42 82 -54 l63 -12 109 113 c89 94 107 109
101 85 -22 -98 -46 -228 -43 -232 8 -7 167 -38 172 -33 9 8 95 413 90 419 -3
2 -51 15 -107 27 l-102 22 -130 -129 -130 -129 -58 157 c-32 86 -62 163 -66
171 -5 8 -44 22 -87 31 -44 10 -91 21 -105 25 -26 6 -26 6 -49 -102z"/>
<path d="M3073 5591 c-45 -9 -84 -19 -88 -23 -11 -11 77 -429 89 -425 6 2 44
10 84 17 41 8 76 19 78 25 4 11 -71 415 -78 419 -2 1 -40 -5 -85 -13z"/>
<path d="M2810 5538 c-46 -10 -85 -20 -86 -21 -2 -1 9 -59 23 -129 28 -137 26
-169 -11 -193 -43 -29 -89 -30 -119 -4 -23 20 -32 44 -55 151 -15 70 -30 129
-32 131 -5 5 -169 -28 -176 -36 -10 -9 49 -236 74 -286 21 -42 37 -60 72 -79
41 -21 54 -23 135 -19 170 9 288 75 315 177 10 35 8 60 -10 145 -11 56 -26
120 -33 142 l-12 40 -85 -19z"/>
<path d="M13272 5232 c-108 -101 -184 -180 -178 -183 6 -4 46 -15 89 -25 l77
-18 30 29 29 28 133 -34 133 -34 11 -40 11 -39 89 -22 c48 -13 89 -22 90 -21
0 1 -36 112 -80 246 l-81 245 -82 22 -82 22 -189 -176z m262 -51 c9 -30 14
-56 12 -58 -2 -2 -33 4 -69 13 l-66 16 16 24 c21 32 76 75 84 66 4 -4 14 -31
23 -61z"/>
<path d="M2032 5369 c-122 -24 -229 -86 -264 -152 -48 -92 -16 -221 71 -282
41 -29 47 -30 144 -29 77 0 117 5 161 21 46 16 65 19 82 11 20 -9 30 -6 68 23
50 37 56 49 27 49 -19 0 -19 2 4 43 18 31 25 57 25 100 0 167 -127 254 -318
216z m106 -152 c16 -16 26 -40 29 -70 6 -50 -4 -62 -41 -48 -20 8 -30 6 -48
-9 -22 -19 -22 -21 -5 -34 24 -18 22 -23 -14 -30 -38 -7 -91 14 -113 45 -22
32 -21 101 3 130 42 52 144 61 189 16z"/>
<path d="M7401 4218 l4 -1103 -569 -3 -568 -2 3 -239 c2 -132 7 -242 10 -246
4 -3 287 -9 630 -12 l624 -5 42 30 c58 43 110 150 124 257 7 53 9 472 7 1252
l-3 1173 -154 0 -153 0 3 -1102z"/>
<path d="M7932 4093 c4 -1371 -1 -1272 74 -1390 66 -103 8 -96 724 -88 464 5
627 9 632 18 4 7 8 159 8 340 l0 327 -150 0 -150 0 0 -95 0 -95 -417 2 -418 3
0 295 0 295 295 0 295 0 3 248 2 247 -118 0 c-65 0 -199 3 -298 6 l-179 7 1
296 2 296 83 2 c46 2 233 -3 414 -10 l330 -12 3 -101 3 -101 97 -6 c53 -4 123
-7 155 -7 l57 0 0 168 c0 92 -5 201 -10 241 -16 119 -82 241 -151 277 -23 11
-154 20 -616 39 -324 14 -607 25 -631 25 l-43 0 3 -1227z"/>
<path d="M1373 5187 c-122 -35 -225 -65 -228 -69 -5 -5 101 -406 110 -416 4
-5 488 130 498 138 11 9 -14 100 -28 100 -5 -1 -80 -20 -165 -44 l-155 -44 -9
29 c-5 16 -7 32 -3 35 3 3 58 20 124 39 l118 33 -3 33 c-1 19 -6 37 -10 41 -4
4 -63 -8 -132 -27 -130 -37 -140 -36 -140 11 0 19 17 26 146 62 80 22 148 42
150 45 9 9 -23 92 -36 94 -8 1 -115 -26 -237 -60z"/>
<path d="M9608 5003 c-2 -131 -1 -241 2 -244 3 -4 111 -14 240 -23 129 -9 255
-19 279 -23 l44 -6 -8 -1035 -7 -1035 98 6 c55 4 122 7 150 7 l51 0 9 833 c5
457 9 914 8 1015 l-1 182 31 0 c17 0 100 -7 185 -15 180 -17 210 -13 263 42
60 62 81 121 87 251 6 107 5 113 -14 117 -11 3 -243 30 -515 60 -486 54 -789
89 -862 101 l-37 6 -3 -239z"/>
<path d="M5755 5225 c-5 -2 -217 -27 -470 -55 -253 -27 -479 -55 -503 -61 -55
-15 -122 -88 -154 -167 -22 -54 -23 -71 -26 -357 -1 -165 1 -610 6 -990 8
-660 10 -692 29 -747 30 -80 77 -145 125 -169 39 -20 69 -22 565 -36 289 -8
536 -12 549 -9 70 18 148 142 162 256 4 36 4 517 0 1070 -7 1107 -5 1072 -70
1173 -44 68 -90 97 -153 96 -27 0 -54 -2 -60 -4z m-22 -817 c4 -182 7 -550 7
-816 l0 -485 -412 7 c-226 3 -413 7 -414 9 -7 7 -15 1547 -8 1547 5 1 178 16
384 34 206 19 389 34 406 35 l31 1 6 -332z"/>
<path d="M14000 5218 c-85 -29 -150 -146 -135 -244 18 -121 191 -224 379 -225
130 -1 212 72 223 199 11 124 -61 202 -237 258 -62 20 -187 26 -230 12z m214
-132 c40 -17 76 -60 76 -93 0 -75 -65 -132 -134 -117 -86 18 -125 72 -106 144
19 71 86 99 164 66z"/>
<path d="M3655 4940 c-247 -43 -508 -89 -580 -102 l-130 -24 2 -460 c1 -252 5
-718 9 -1036 l6 -576 57 -6 c31 -3 97 -7 146 -8 l90 -3 -4 438 -4 437 49 0
c27 1 121 5 209 10 88 4 161 7 163 6 3 -3 23 -56 236 -601 l125 -320 38 -7
c21 -4 102 -7 180 -7 l142 -1 -20 53 c-10 28 -86 241 -168 472 l-148 420 36 7
c20 4 54 7 76 7 82 2 158 77 193 190 15 50 17 103 14 491 -3 520 -8 566 -81
643 -39 42 -74 57 -133 56 -29 0 -255 -36 -503 -79z m418 -612 c3 -139 2 -256
-2 -259 -3 -4 -121 -17 -261 -28 -407 -35 -550 -44 -558 -36 -6 5 -14 463 -9
466 4 1 793 107 808 108 14 1 17 -28 22 -251z"/>
<path d="M11410 4999 c-50 -20 -100 -81 -121 -149 -20 -63 -21 -97 -29 -975
-5 -585 -4 -930 2 -965 14 -78 64 -167 111 -198 46 -31 -7 -31 655 -2 327 15
473 25 496 34 44 18 100 77 127 134 21 43 23 66 30 296 4 137 8 515 10 840 3
591 3 591 -19 647 -26 67 -87 140 -135 163 -32 15 -1033 187 -1080 185 -12 0
-33 -5 -47 -10z m585 -484 c198 -25 369 -48 380 -50 20 -4 20 -11 18 -582 -1
-318 -5 -620 -9 -670 l-6 -93 -415 0 -416 0 6 203 c4 111 7 351 8 532 0 182 3
417 6 523 l6 194 31 -6 c17 -3 193 -26 391 -51z"/>
<path d="M2485 4723 c-458 -102 -1072 -248 -1152 -274 l-33 -11 0 -791 c0
-436 4 -797 8 -803 4 -8 61 -15 150 -19 l142 -8 0 347 c0 270 3 346 13 346 6
0 84 5 172 10 88 5 288 17 445 25 157 9 303 21 325 26 58 15 126 89 148 161
16 50 18 96 15 444 -3 349 -5 393 -21 429 -43 95 -121 139 -212 118z m-65
-591 l0 -218 -405 -45 c-223 -25 -408 -43 -410 -40 -3 2 -5 88 -5 191 l0 186
403 71 c221 39 405 71 410 72 4 0 7 -97 7 -217z"/>
<path d="M13033 4705 c-43 -18 -89 -85 -102 -146 -17 -78 -14 -784 3 -832 20
-54 60 -108 101 -136 41 -28 52 -29 550 -56 160 -8 327 -18 373 -21 l82 -6 -2
-187 -3 -186 -412 -3 -413 -2 0 70 0 70 -150 0 -150 0 0 -148 c0 -182 13 -234
73 -296 25 -27 57 -48 80 -54 44 -12 1003 39 1093 58 61 13 124 63 157 124 21
40 22 50 22 351 0 276 -2 315 -18 357 -21 54 -90 121 -141 138 -19 6 -239 32
-491 59 -251 27 -461 53 -466 58 -10 10 0 423 10 423 3 -1 186 -31 406 -68
l400 -68 5 -64 5 -64 135 -23 c74 -13 141 -20 149 -18 23 9 10 237 -17 297
-26 60 -98 130 -154 151 -58 21 -1028 237 -1065 237 -15 -1 -42 -7 -60 -15z"/>
</g>
</svg>
